<svg width="1632" height="1071" viewBox="0 0 1632 1071" fill="none" xmlns="http://www.w3.org/2000/svg">
<g clip-path="url(#clip0)">
<g clip-path="url(#clip1)">
<path d="M719.606 897C933.064 897 1106.11 723.958 1106.11 510.5C1106.11 297.042 933.064 124 719.606 124C506.148 124 333.106 297.042 333.106 510.5C333.106 723.958 506.148 897 719.606 897Z" fill="#FAEFE9"/>
<g clip-path="url(#clip2)">
<path d="M971.503 124.603H333.709V544.397H971.503V124.603Z" stroke="black" stroke-miterlimit="10"/>
<path d="M333.709 146.92H971.503" stroke="black" stroke-miterlimit="10"/>
<path d="M571.827 184.315H380.127V376.117H571.827V184.315Z" stroke="black" stroke-miterlimit="10"/>
<path d="M608.599 201.203H901.575" stroke="black" stroke-miterlimit="10"/>
<path d="M608.599 230.155H901.575" stroke="black" stroke-miterlimit="10"/>
<path d="M608.599 259.106H901.575" stroke="black" stroke-miterlimit="10"/>
<path d="M608.599 288.057H901.575" stroke="black" stroke-miterlimit="10"/>
<path opacity="0.44" d="M504.361 225.581L420.651 288.057L516.561 329.32L504.361 225.581Z" fill="#50B89D"/>
<path d="M347.574 141.491C350.57 141.491 352.999 139.061 352.999 136.063C352.999 133.065 350.57 130.635 347.574 130.635C344.577 130.635 342.148 133.065 342.148 136.063C342.148 139.061 344.577 141.491 347.574 141.491Z" fill="#AB8DE5"/>
<path d="M366.262 141.491C369.258 141.491 371.687 139.061 371.687 136.063C371.687 133.065 369.258 130.635 366.262 130.635C363.265 130.635 360.836 133.065 360.836 136.063C360.836 139.061 363.265 141.491 366.262 141.491Z" fill="#73E5E2"/>
<path d="M384.949 141.491C387.946 141.491 390.375 139.061 390.375 136.063C390.375 133.065 387.946 130.635 384.949 130.635C381.953 130.635 379.524 133.065 379.524 136.063C379.524 139.061 381.953 141.491 384.949 141.491Z" fill="#50B89D"/>
</g>
</g>
<g clip-path="url(#clip3)">
<path d="M514.8 924.195H160.8V1117.55H514.8V924.195Z" fill="#B27363"/>
<path d="M514.8 924.555H160.8L225.246 880.907H450.354L514.8 924.555Z" fill="#98574C"/>
<path d="M338.254 880.907V925.638" stroke="#B27363" stroke-width="20" stroke-miterlimit="10"/>
<path d="M270.177 1026.82H405.423" stroke="#B27363" stroke-width="9" stroke-miterlimit="10"/>
<path d="M270.177 1039.45H405.423" stroke="#B27363" stroke-width="9" stroke-miterlimit="10"/>
</g>
<g clip-path="url(#clip4)">
<path d="M618.494 839.846C619.676 846.883 639.738 1007.76 642.988 1010.42C646.238 1013.08 680.749 1018.97 683.704 1014.54C684.295 1007.5 685.111 895.324 686.939 885.29" fill="#1F161E"/>
<path d="M230.331 806.281C216.417 799.413 245.427 935.279 321.779 935.279C398.132 935.279 526.652 818.933 547.46 818.933C593.395 818.933 702.134 909.159 710.66 909.159C717.188 902.628 730.244 891.201 730.244 886.711C730.244 882.222 626.133 710.791 548.234 710.791C518.027 710.763 261.747 821.804 230.331 806.281Z" fill="#50B89D"/>
<path d="M273.298 808.589C288.563 805.127 307.556 796.162 324.368 786.986C278.63 801.932 241.15 811.629 230.331 806.281C222.959 802.65 227.63 839.016 244.963 874.045C241.826 867.262 237.352 816.737 273.298 808.589Z" fill="#1F161E"/>
<path d="M306.951 570.238C318.98 570.562 381.601 568.719 398.765 585.072C411.497 597.189 451.087 701.531 457.193 738.165C430.603 751.675 238.815 843.548 179.458 803.142C178.149 771.744 184.241 647.01 223.058 581.582C237.253 572.124 295.386 569.929 306.951 570.238Z" fill="#73E5E2"/>
<path d="M331.346 540.374H294.767V579.71C294.767 589.562 331.346 589.477 331.346 579.71V540.374Z" fill="#F8CDBA"/>
<path d="M294.767 564.088C294.767 559.726 306.852 548.762 314.323 549.142C314.506 544.385 297.257 537.349 297.257 537.349L294.767 544.062V564.088Z" fill="#1F161E"/>
<path d="M369.656 540.374C370.478 536.573 370.893 532.695 370.894 528.806C370.894 499.786 348.229 476.255 320.246 476.255C292.263 476.255 269.598 499.786 269.598 528.806C269.598 532.695 270.014 536.573 270.836 540.374H369.656Z" fill="#1F161E"/>
<path d="M356.305 504.979C350.1 504.036 343.91 499.153 339.591 495.958C314.97 514 299.199 514.254 297.496 514.254C295.794 514.254 288.858 524.218 285.664 525.344L285.383 525.175C286.34 530.413 288.374 535.395 291.357 539.804C294.341 544.214 298.208 547.955 302.713 550.791C307.218 553.626 312.264 555.494 317.529 556.275C322.794 557.057 328.164 556.735 333.298 555.33C338.433 553.926 343.219 551.469 347.354 548.116C351.488 544.763 354.881 540.586 357.317 535.852C359.753 531.118 361.178 525.929 361.503 520.614C361.828 515.299 361.044 509.975 359.203 504.979C358.241 505.099 357.267 505.099 356.305 504.979Z" fill="#F8CDBA"/>
<path d="M292.811 482.799C301.063 482.799 307.753 476.108 307.753 467.853C307.753 459.599 301.063 452.907 292.811 452.907C284.56 452.907 277.87 459.599 277.87 467.853C277.87 476.108 284.56 482.799 292.811 482.799Z" fill="#1F161E"/>
<path d="M299.466 513.423C297.851 513.5 296.328 514.195 295.213 515.365C294.097 516.535 293.475 518.09 293.475 519.707C293.475 521.324 294.097 522.879 295.213 524.049C296.328 525.219 297.851 525.915 299.466 525.991" stroke="#1F161E" stroke-miterlimit="10" stroke-linecap="round"/>
<path d="M347.357 514.183C349.2 516.646 353.941 520.953 347.357 525.527" stroke="#1F161E" stroke-miterlimit="10" stroke-linecap="round"/>
<path d="M327.393 528.904C327.393 530.748 328.181 535.153 332.134 536.293" stroke="#1F161E" stroke-miterlimit="10" stroke-linecap="round"/>
<path d="M315.139 529.298C318.34 529.298 320.935 527.95 320.935 526.287C320.935 524.623 318.34 523.275 315.139 523.275C311.938 523.275 309.342 524.623 309.342 526.287C309.342 527.95 311.938 529.298 315.139 529.298Z" fill="#FA9E9F"/>
<path d="M358.232 529.298C361.433 529.298 364.029 527.95 364.029 526.287C364.029 524.623 361.433 523.275 358.232 523.275C355.031 523.275 352.436 524.623 352.436 526.287C352.436 527.95 355.031 529.298 358.232 529.298Z" fill="#FA9E9F"/>
<path d="M397.442 678.985L436.54 668.922C440.296 675.27 458.586 738.094 458.586 738.094L398.23 763.539C399.018 751.633 401.396 697.224 397.442 678.985Z" fill="#F8CDBA"/>
<path d="M260.354 669.148C260.354 673.876 256.373 691.876 254.023 700.335" stroke="#1F161E" stroke-miterlimit="10" stroke-linecap="round"/>
<path d="M397.442 678.985C396.5 671.54 390.985 629.587 381.601 607.505" stroke="#1F161E" stroke-miterlimit="10" stroke-linecap="round"/>
<path d="M397.442 678.985L436.54 668.922C440.296 675.27 458.586 738.094 458.586 738.094L398.23 763.539C399.018 751.633 401.396 697.224 397.442 678.985Z" fill="#F8CDBA"/>
<path d="M711.827 905.837C712.7 907.174 724.349 921.529 728.471 921.698C732.593 921.867 757.622 904.894 756.525 901.249C755.427 897.604 739.726 899.969 737.025 898.702C734.324 897.435 728.316 891.412 727.36 888.724" fill="#1F161E"/>
<path d="M650.276 1011.91C649.98 1013.47 648.39 1031.89 651.246 1034.88C654.102 1037.86 683.886 1043.04 685.617 1039.65C687.347 1036.26 674.362 1027.07 673.363 1024.28C672.364 1021.49 672.153 1013.02 673.363 1010.38" fill="#1F161E"/>
<path d="M603.581 742.035H471.093L502.636 658.424H635.124L603.581 742.035Z" fill="#969696"/>
<path d="M493.182 738.882H360.694V742.035H493.182V738.882Z" fill="#969696"/>
<path d="M254.023 700.335C251.477 709.891 239.054 750.648 244.175 757.656C249.296 764.665 375.354 748.734 409.106 738.235C417.702 735.42 424.075 728.032 427.888 727.089C432.772 726.264 437.788 727.27 441.977 729.913C446.166 732.556 449.234 736.652 450.595 741.416C437.117 747.946 242.515 847.333 179.458 803.1C167.541 794.614 188.462 690.469 189.405 685.206C200.055 686.529 254.023 700.335 254.023 700.335Z" fill="#F8CDBA"/>
<path d="M399.243 740.853C403.042 739.952 406.362 739.079 409.091 738.235C417.688 735.42 424.061 728.032 427.874 727.089C432.76 726.261 437.779 727.265 441.972 729.908C446.164 732.551 449.234 736.649 450.595 741.416" stroke="#1F161E" stroke-miterlimit="10" stroke-linecap="round"/>
<g clip-path="url(#clip5)">
<path d="M602.007 622.599L623.214 603.595H601.583L602.007 622.599Z" fill="#AB8FE2"/>
<path d="M715.563 605.746H610.037C593.89 605.746 580.8 592.467 580.8 576.086V562.259C580.8 545.878 593.89 532.599 610.037 532.599H715.563C731.71 532.599 744.8 545.878 744.8 562.259V576.086C744.8 592.467 731.71 605.746 715.563 605.746Z" fill="#AB8FE2"/>
<path d="M640.886 575.627C637.372 575.627 634.524 572.737 634.524 569.172C634.524 565.608 637.372 562.718 640.886 562.718C644.4 562.718 647.248 565.608 647.248 569.172C647.248 572.737 644.4 575.627 640.886 575.627Z" fill="white"/>
<path d="M662.8 575.627C659.286 575.627 656.438 572.737 656.438 569.172C656.438 565.608 659.286 562.718 662.8 562.718C666.314 562.718 669.162 565.608 669.162 569.172C669.162 572.737 666.314 575.627 662.8 575.627Z" fill="white"/>
<path d="M684.714 575.627C681.2 575.627 678.352 572.737 678.352 569.172C678.352 565.608 681.2 562.718 684.714 562.718C688.227 562.718 691.076 565.608 691.076 569.172C691.076 572.737 688.227 575.627 684.714 575.627Z" fill="white"/>
</g>
</g>
<g clip-path="url(#clip6)">
<path d="M1106.3 403.567H869.3V770.567H1106.3V403.567Z" fill="white"/>
<path d="M821.8 627.567H1064.8" stroke="black" stroke-miterlimit="10"/>
<path d="M821.8 651.567H1064.8" stroke="black" stroke-miterlimit="10"/>
<path d="M821.8 675.567H1064.8" stroke="black" stroke-miterlimit="10"/>
<path d="M821.8 699.567H1064.8" stroke="black" stroke-miterlimit="10"/>
<path d="M957.668 541.493C991.91 541.493 1019.67 513.735 1019.67 479.493C1019.67 445.252 991.91 417.493 957.668 417.493C923.426 417.493 895.668 445.252 895.668 479.493C895.668 513.735 923.426 541.493 957.668 541.493Z" fill="#F2F2F2"/>
<path opacity="0.7" d="M1169.26 536.567H1071.26V627.567H1169.26V536.567Z" fill="#50B89D"/>
<path d="M1080.09 579.469L1093.55 584.91V589.124L1075.96 580.974V577.835L1093.55 569.706V573.921L1080.09 579.469ZM1111.55 596.006H1108.13L1121.2 562.008H1124.6L1111.55 596.006ZM1153.91 579.34L1139.7 573.771V569.685L1158.06 577.813V580.953L1139.7 589.103V584.974L1153.91 579.34Z" fill="white"/>
</g>
<g clip-path="url(#clip7)">
<path d="M1142.95 753.756C1179.81 760.741 1173.24 980.132 1102.48 966.859C1035.66 954.263 1097.98 745.301 1142.95 753.756Z" fill="black"/>
<path d="M981.108 780.959C1010.44 764.417 1133.23 918.507 1077.07 950.18C1024 980.112 945.391 801.101 981.108 780.959Z" fill="#FBDC8E"/>
<path d="M1130.59 1072.91H1056.52C1053.54 1072.91 1050.66 1071.81 1048.44 1069.82C1046.21 1067.84 1044.8 1065.11 1044.47 1062.15L1035.12 978.39C1034.93 976.7 1035.1 974.99 1035.62 973.37C1036.14 971.751 1037 970.259 1038.14 968.991C1039.27 967.724 1040.66 966.71 1042.22 966.016C1043.78 965.322 1045.46 964.963 1047.17 964.962H1139.56C1141.26 964.961 1142.94 965.316 1144.49 966.006C1146.05 966.696 1147.44 967.704 1148.57 968.966C1149.71 970.227 1150.57 971.713 1151.09 973.327C1151.61 974.941 1151.79 976.646 1151.6 978.332L1142.66 1062.09C1142.34 1065.06 1140.93 1067.81 1138.7 1069.8C1136.48 1071.8 1133.59 1072.91 1130.59 1072.91V1072.91Z" fill="#969696"/>
<path d="M1163.77 668.352C1191.84 676.498 1170.33 845.912 1116.57 830.259C1065.81 815.535 1129.6 658.446 1163.77 668.352Z" fill="#AB8DE5"/>
<path d="M1210.06 803.094C1229.46 819.792 1150.54 947.355 1113.25 915.315C1078.04 885.189 1186.37 782.778 1210.06 803.094Z" fill="#FBDC8E"/>
<path d="M1093.75 685.978C1135.77 685.978 1174.25 953.547 1093.75 953.547C1017.74 953.547 1042.59 685.978 1093.75 685.978Z" fill="#78E5E1"/>
<path d="M1167.49 946.756H1019.66C1015.32 946.756 1011.8 950.264 1011.8 954.592V968.871C1011.8 973.199 1015.32 976.707 1019.66 976.707H1167.49C1171.83 976.707 1175.35 973.199 1175.35 968.871V954.592C1175.35 950.264 1171.83 946.756 1167.49 946.756Z" fill="#D8D8D8"/>
</g>
<g clip-path="url(#clip8)">
<path opacity="0.57" d="M1059 390.52C1115.77 390.52 1161.8 344.386 1161.8 287.477C1161.8 230.568 1115.77 184.434 1059 184.434C1002.23 184.434 956.201 230.568 956.201 287.477C956.201 344.386 1002.23 390.52 1059 390.52Z" fill="#FADB93"/>
<path d="M1020.6 390.52C1077.37 390.52 1123.4 344.386 1123.4 287.477C1123.4 230.568 1077.37 184.434 1020.6 184.434C963.825 184.434 917.8 230.568 917.8 287.477C917.8 344.386 963.825 390.52 1020.6 390.52Z" fill="#78E5E1"/>
<path d="M1020.6 287.477V169.216" stroke="black" stroke-width="0.41" stroke-miterlimit="10"/>
<path d="M1020.6 287.477L1109.57 198.292" stroke="black" stroke-width="0.41" stroke-miterlimit="10"/>
<path d="M1020.6 287.477L1087.41 377.689" stroke="black" stroke-width="0.41" stroke-miterlimit="10"/>
<path d="M1037.7 390.52C1094.47 390.52 1140.5 344.386 1140.5 287.477C1140.5 230.568 1094.47 184.434 1037.7 184.434C980.925 184.434 934.9 230.568 934.9 287.477C934.9 344.386 980.925 390.52 1037.7 390.52Z" stroke="black" stroke-width="0.41" stroke-miterlimit="10"/>
</g>
<g clip-path="url(#clip9)">
<path d="M1273.04 1052.31C1273.04 1054.61 1273.71 1068.14 1271.75 1070.4C1268.21 1074.51 1239.6 1072.63 1238.26 1071.31C1236.92 1069.98 1236.1 1067.16 1237.31 1066.35C1238.52 1065.54 1249.89 1063.24 1251.43 1062.17C1252.97 1061.09 1255.09 1055.42 1254.28 1052.38" fill="#1F161E"/>
<path d="M1464.57 1022.91C1465.55 1024.97 1471.93 1036.9 1471.12 1039.8C1469.69 1045.02 1443.01 1055.52 1441.21 1054.88C1439.42 1054.24 1437.49 1052.05 1438.24 1050.81C1438.99 1049.56 1448.28 1042.65 1449.23 1041.01C1450.18 1039.38 1449.67 1033.35 1447.68 1030.94" fill="#1F161E"/>
<path d="M1390.8 633.57C1391.29 645.071 1393.48 807.645 1393.48 807.645L1468.21 1023.42C1466.03 1028.52 1445.62 1035.43 1442.71 1034.3C1439.8 1033.17 1319.05 814.872 1319.05 814.872" fill="#1F161E"/>
<path d="M1249.73 633.57C1243.6 637.611 1250.93 1052.3 1250.93 1052.3C1253.41 1055.17 1273.17 1054.75 1276.47 1052.3C1279.77 1049.84 1311.87 854.676 1315.17 843.936C1318.47 833.197 1390.8 633.57 1390.8 633.57C1390.8 633.57 1258.84 627.571 1249.73 633.57Z" fill="#FADB93"/>
<path d="M1097.81 411.127C1093.8 408.314 1076.77 387.643 1074.76 380.695C1072.75 373.748 1071.24 347.559 1091.1 353.511C1110.97 359.464 1102 380.446 1116.01 393.673" fill="#F8CDBA"/>
<path d="M1343.93 393.673C1348.81 398.211 1398.81 482.265 1398.81 492.787C1398.81 503.309 1387.27 567.126 1380.64 580.741C1374 594.357 1343.93 393.673 1343.93 393.673Z" fill="#1F161E"/>
<path d="M1314.52 370.282C1386.47 370.282 1395.88 623.436 1390.8 633.617C1385.73 643.797 1259.9 642.616 1249.7 633.617C1239.51 624.618 1248.33 370.282 1314.52 370.282Z" fill="#AB8FE2"/>
<path d="M1301.58 378.737C1301.58 383.244 1326.49 383.586 1326.49 378.737V348.522H1301.58V378.737Z" fill="#F8CDBA"/>
<path d="M1326.52 366.536C1326.52 363.847 1320.29 354.568 1315.62 356.138C1321.49 354.071 1324.39 347.015 1326.52 348.46V366.536Z" fill="black"/>
<path d="M1302.98 358.687C1320.87 358.687 1335.38 344.206 1335.38 326.343C1335.38 308.48 1320.87 294 1302.98 294C1285.09 294 1270.58 308.48 1270.58 326.343C1270.58 344.206 1285.09 358.687 1302.98 358.687Z" fill="#F8CDBA"/>
<path d="M1270.22 333.493C1273.21 333.493 1275.63 332.233 1275.63 330.68C1275.63 329.126 1273.21 327.866 1270.22 327.866C1267.24 327.866 1264.82 329.126 1264.82 330.68C1264.82 332.233 1267.24 333.493 1270.22 333.493Z" fill="#FA9E9F"/>
<path d="M1304.19 333.493C1307.18 333.493 1309.6 332.233 1309.6 330.68C1309.6 329.126 1307.18 327.866 1304.19 327.866C1301.21 327.866 1298.79 329.126 1298.79 330.68C1298.79 332.233 1301.21 333.493 1304.19 333.493Z" fill="#FA9E9F"/>
<path d="M1283.38 324.851C1282.38 326.297 1277.15 332.343 1282.66 334.783" stroke="#1F161E" stroke-width="0.69" stroke-miterlimit="10" stroke-linecap="round"/>
<path d="M1293.59 341.839C1295.15 341.839 1297.72 339.834 1299.04 338.016" stroke="#1F161E" stroke-width="0.69" stroke-miterlimit="10" stroke-linecap="round"/>
<path d="M1333.95 307.49C1333.95 296.269 1318.27 287.907 1307.35 287.907C1289.98 287.907 1268.81 292.135 1265.32 293.362C1259.46 295.398 1258.47 301.631 1258.47 303.714C1258.47 312.448 1261.58 317.888 1271.3 319.256C1271.96 316.175 1273.11 313.217 1274.69 310.49C1277.38 309.458 1280.35 309.409 1283.07 310.35C1285.53 311.205 1306.08 320.872 1321.29 320.872C1323.31 323.717 1327.76 341.078 1326.46 348.445C1330.91 348.709 1339.11 334.239 1339.53 326.685C1339.63 324.093 1339.12 321.515 1338.04 319.156C1336.95 316.797 1335.33 314.724 1333.31 313.101C1333.51 311.469 1333.95 308.376 1333.95 307.49Z" fill="black"/>
<path d="M1322.72 335C1326.66 335 1329.85 331.813 1329.85 327.882C1329.85 323.951 1326.66 320.764 1322.72 320.764C1318.78 320.764 1315.59 323.951 1315.59 327.882C1315.59 331.813 1318.78 335 1322.72 335Z" fill="#F8CDBA"/>
<path d="M1333.43 438.668C1315.59 465.883 1219.13 508.811 1208.98 508.811C1182.06 508.811 1102.36 420.515 1097.81 411.096C1103.06 405.501 1114.24 393.642 1115.98 393.642C1117.73 393.642 1193.59 445.989 1207.93 445.989C1222.27 445.989 1290.23 398.258 1299.07 396.113" fill="#AB8FE2"/>
<path d="M1275.03 409.775C1286.79 402.486 1296.14 396.813 1299.07 396.113" stroke="#1F161E" stroke-linecap="round" stroke-linejoin="round"/>
<path d="M1254.84 490.658C1285.98 475.721 1323.05 454.553 1333.43 438.699" stroke="#1F161E" stroke-linecap="round" stroke-linejoin="round"/>
<path d="M1249.81 529.172C1250.45 523.095 1281.99 476.887 1288.08 473.312C1281.62 476.903 1257.16 489.29 1254.84 490.658C1253.49 494.279 1249.81 529.172 1249.81 529.172Z" fill="#1F161E"/>
</g>
<g clip-path="url(#clip10)">
<path d="M1318.5 162.229H1161.01C1155.9 162.229 1151.76 166.376 1151.76 171.492V222.972C1151.76 228.087 1155.9 232.234 1161.01 232.234H1318.5C1323.61 232.234 1327.76 228.087 1327.76 222.972V171.492C1327.76 166.376 1323.61 162.229 1318.5 162.229Z" fill="#78E5E1"/>
<path d="M1239.76 280.229L1260.95 215.941H1218.56L1239.76 280.229Z" fill="#78E5E1"/>
<path d="M1197.73 180.877L1179.95 211.661H1215.5L1197.73 180.877Z" fill="white"/>
<path d="M1281.75 211.661L1299.53 180.877H1264.01L1281.75 211.661Z" fill="white"/>
<path d="M1239.76 209.613C1247.13 209.613 1253.1 203.632 1253.1 196.254C1253.1 188.875 1247.13 182.894 1239.76 182.894C1232.38 182.894 1226.41 188.875 1226.41 196.254C1226.41 203.632 1232.38 209.613 1239.76 209.613Z" fill="white"/>
</g>
</g>
<defs>
<clipPath id="clip0">
<rect width="1632" height="1071" fill="white"/>
</clipPath>
<clipPath id="clip1">
<rect width="773" height="773" fill="white" transform="translate(333.106 124)"/>
</clipPath>
<clipPath id="clip2">
<rect width="639" height="421" fill="white" transform="translate(333.106 124)"/>
</clipPath>
<clipPath id="clip3">
<rect width="354" height="237" fill="white" transform="translate(160.8 880.907)"/>
</clipPath>
<clipPath id="clip4">
<rect width="580.725" height="587.854" fill="white" transform="translate(175.8 452.907)"/>
</clipPath>
<clipPath id="clip5">
<rect width="164" height="90" fill="white" transform="matrix(-1 0 0 1 744.8 532.599)"/>
</clipPath>
<clipPath id="clip6">
<rect width="341" height="367" fill="white" transform="translate(821.8 403.567)"/>
</clipPath>
<clipPath id="clip7">
<rect width="241" height="405" fill="white" transform="translate(972.106 667.907)"/>
</clipPath>
<clipPath id="clip8">
<rect width="244" height="222" fill="white" transform="translate(917.8 169.216)"/>
</clipPath>
<clipPath id="clip9">
<rect width="398" height="785" fill="white" transform="translate(1073.2 287.907)"/>
</clipPath>
<clipPath id="clip10">
<rect width="184" height="123" fill="white" transform="translate(1151.38 157.216)"/>
</clipPath>
</defs>
</svg>
